# xmcd
#
# Track frame offsets: 
#        150
#        15940
#        35955
#        49906
#        65769
#        82909
#        102028
#        119941
#        134479
#        153364
#        168252
#        186655
#        208629
#        222136
#        238089
#        257434
#        278053
#        295255
#
# Disc length: 4151 seconds
#
# Revision: 8
# Processed by: cddbd v1.5.2PL0 Copyright (c) Steve Scherf et al.
# Submitted via: ExactAudioCopyFreeDBPlugin 1.0
#
DISCID=0f103512
DTITLE=Various Artist - Patriotic Country
DYEAR=2004
DGENRE=Country
TTITLE0=Lee Greenwood - God Bless The USA
TTITLE1=Montgomery Gentry - My Town
TTITLE2=Brooks and Dunn - Till My Dyin' Day
TTITLE3=Martina McBride - God Bless America
TTITLE4=Aaron Tippin - Where The Stars and Strips and The Eagle Fly
TTITLE5=Lonestar - I'm Already There
TTITLE6=Randy Travis - America Will Always Stand
TTITLE7=Phil Vassar - American Child
TTITLE8=Kenny Chesney - Back Where I Come From
TTITLE9=Alabama - Born Country
TTITLE10=Neal McCoy - I'm Your Biggest Fan
TTITLE11=Hank Williams, Jr. - America Will Survive
TTITLE12=Blackhawk - Days Of America
TTITLE13=The Charlie Daniels Band - This Ain't No Rag, It's A Flag
TTITLE14=The Warren Brothers - Hey Mr. President
TTITLE15=David Ball - Riding With Private Malone
TTITLE16=Dusty Drake - One Last Time
TTITLE17=Kenny Rogers - Homeland
EXTD=
EXTT0=
EXTT1=
EXTT2=
EXTT3=
EXTT4=
EXTT5=
EXTT6=
EXTT7=
EXTT8=
EXTT9=
EXTT10=
EXTT11=
EXTT12=
EXTT13=
EXTT14=
EXTT15=
EXTT16=
EXTT17=
PLAYORDER=
